<svg width="238" height="98" viewBox="0 0 238 98" fill="none" xmlns="http://www.w3.org/2000/svg">
<path d="M63.4968 22.6522C63.3971 22.7216 63.3688 22.7653 63.4118 22.7833C63.4533 22.7804 63.5261 22.7755 63.63 22.7684C63.7325 22.7405 63.835 22.7126 63.9375 22.6848C64.04 22.6569 64.1017 22.6422 64.1225 22.6408C64.2042 22.6144 64.2859 22.5879 64.3676 22.5614C64.4494 22.535 64.5103 22.5099 64.5505 22.4863C64.5892 22.4419 64.5967 22.3996 64.5731 22.3595C64.5481 22.2986 64.4843 22.282 64.3818 22.3099C64.2779 22.317 64.165 22.3456 64.0431 22.3957C63.9212 22.4457 63.8097 22.4951 63.7087 22.5438C63.6076 22.5924 63.537 22.6286 63.4968 22.6522ZM62.0477 22.5318C62.8229 21.9569 63.603 21.4547 64.3881 21.0252C65.1926 20.5736 65.8638 20.4651 66.4019 20.6999C66.639 20.809 66.793 20.9238 66.8639 21.0442C66.9555 21.1633 67.0056 21.2851 67.0141 21.4099C67.0212 21.5138 67.0172 21.608 67.0021 21.6926C66.9662 21.7786 66.9608 21.852 66.9858 21.913C67.0094 21.9531 67.0843 21.9793 67.2104 21.9916C67.3559 21.9817 67.5935 21.9446 67.9233 21.8803C73.71 20.6919 78.9036 19.993 83.5042 19.7835C88.1241 19.5518 91.5719 19.8908 93.8474 20.8005C94.1927 20.9648 94.3829 21.1502 94.4178 21.3567C94.4514 21.5423 94.3886 21.6928 94.2294 21.8081C94.0702 21.9233 93.8616 21.9271 93.6037 21.8194C91.4349 20.9442 88.1154 20.6487 83.6452 20.9328C79.1958 21.2155 74.1423 21.978 68.4845 23.2202C67.7032 23.3988 67.1652 23.6235 66.8704 23.8942C66.5965 24.1634 66.3331 24.5886 66.0804 25.1696C66.0086 25.3416 65.9078 25.5469 65.7779 25.7854C64.2995 28.6009 61.5651 33.3606 57.5747 40.0645C54.9154 44.5476 52.232 49.1368 49.5245 53.832C46.817 58.5272 44.521 62.6723 42.6363 66.2672C40.7725 69.8608 39.8717 72.1148 39.9342 73.0294C39.954 73.3204 39.8747 73.5346 39.6961 73.6721C39.5175 73.8095 39.3312 73.8327 39.137 73.7415C38.9429 73.6504 38.8323 73.4073 38.8054 73.0124C38.7274 71.8693 39.643 69.3741 41.5522 65.5268C43.4835 61.699 45.8278 57.3418 48.5849 52.4552C51.3627 47.5673 54.0792 42.8506 56.7342 38.3051C60.2504 32.3018 62.7096 27.9472 64.112 25.2413C64.2792 24.9376 64.2775 24.7602 64.107 24.7092C63.9365 24.6582 63.6974 24.6745 63.3899 24.7581C63.081 24.8209 62.8039 24.8921 62.5588 24.9714C62.5186 24.995 62.4777 25.0083 62.4362 25.0111C61.8821 25.1533 61.4631 25.2863 61.1792 25.4101C60.9146 25.5117 60.6834 25.6423 60.4855 25.802C60.2876 25.9617 60.0323 26.1984 59.7196 26.512C59.6005 26.6037 59.4829 26.7161 59.3667 26.8493C57.1334 29.0064 54.9548 31.2014 52.8311 33.4345C52.2666 34.0369 51.7014 34.6288 51.1355 35.2103C50.9792 35.3672 50.8727 35.4893 50.816 35.5767C50.7787 35.6419 50.7614 35.6953 50.7643 35.7368C50.7879 35.777 50.8219 35.8164 50.8663 35.8552C50.9329 35.9133 50.9906 35.9929 51.0392 36.0939C51.095 36.299 50.9859 36.5361 50.7119 36.8054C50.4587 37.0732 50.1361 37.2414 49.744 37.3099C49.3519 37.3785 48.965 37.2169 48.5833 36.8253C48.4444 36.626 48.4966 36.3196 48.7399 35.9063C49.0025 35.4707 49.3171 35.0316 49.6836 34.589C50.071 34.1449 50.3912 33.789 50.6444 33.5211C50.762 33.4087 50.8395 33.3199 50.8768 33.2547C51.7648 32.1917 52.6177 31.2252 53.4353 30.355C54.253 29.4848 55.1717 28.566 56.1916 27.5985C57.2072 26.5686 57.0189 26.2578 55.6268 26.666C51.7637 27.8902 48.0442 29.2298 44.4683 30.685C42.6982 31.3696 40.4098 32.4132 37.603 33.8159C34.7961 35.2185 32.0804 36.8864 29.456 38.8196C26.8315 40.7527 24.9071 42.8469 23.6828 45.1022C22.4792 47.356 22.5958 49.6764 24.0325 52.0633C24.331 52.4605 24.6501 52.6998 24.9898 52.781C25.3488 52.84 25.6835 52.8485 25.9939 52.8065C26.2834 52.7658 26.4941 52.7932 26.6259 52.8886C26.7563 52.9633 26.7407 53.194 26.5792 53.5809C26.0681 54.6599 25.2648 54.9757 24.1693 54.5284C23.0946 54.0797 22.2422 53.0625 21.6119 51.4767C20.9817 49.8909 21.0867 47.9104 21.9269 45.5352C22.7865 43.1378 24.9055 40.5292 28.2839 37.7093C31.6816 34.8672 36.8629 31.9974 43.8276 29.0999C48.6638 27.1411 53.6958 25.4509 58.9237 24.0292C59.0054 24.0027 59.0767 23.977 59.1377 23.952C59.6308 23.8348 60 23.7365 60.2452 23.6571C60.5097 23.5556 60.7624 23.4339 61.0033 23.2922C61.2636 23.1282 61.6117 22.8748 62.0477 22.5318ZM75.7757 51.3203C76.317 50.991 76.6481 50.9475 76.7691 51.1899C76.89 51.4322 76.7131 51.747 76.2384 52.1344C75.4812 52.6664 74.4947 53.2035 73.2788 53.7459C72.0822 54.2661 70.9898 54.4763 70.0016 54.3767C69.0119 54.2563 68.4488 53.5012 68.3122 52.1115L68.3016 51.9556C68.3025 51.6632 68.2718 51.5191 68.2094 51.5233C68.1457 51.5068 67.9747 51.602 67.6964 51.8089C64.618 54.128 62.3379 55.5992 60.856 56.2223C59.395 56.8441 58.513 56.9251 58.2102 56.4655C57.8322 55.8231 58.1777 54.7659 59.2467 53.2939C60.3142 51.8011 61.7192 50.3583 63.4618 48.9656C65.2252 47.5715 66.9401 46.6923 68.6067 46.328C70.2718 45.9429 71.502 46.5272 72.2971 48.0808C72.3736 48.2844 72.3552 48.4736 72.2418 48.6484C72.1285 48.8232 71.97 48.9489 71.7664 49.0254C71.5628 49.1019 71.3209 49.0767 71.0408 48.9496C70.7814 48.8211 70.5927 48.6565 70.4746 48.4558C70.4718 48.4142 70.4793 48.3719 70.4973 48.3289C70.5152 48.2859 70.5332 48.243 70.5511 48.2C70.5691 48.157 70.587 48.114 70.605 48.071C70.6229 48.028 70.6201 47.9864 70.5965 47.9463C70.0286 47.2751 69.1278 47.2321 67.8939 47.8175C66.6601 48.4028 65.3726 49.2737 64.0316 50.4302C62.6905 51.5867 61.5642 52.6763 60.6525 53.6991C59.7395 54.7011 59.3212 55.3039 59.3977 55.5075C59.495 55.7096 60.2927 55.3107 61.7905 54.3105C63.2884 53.3104 65.7308 51.4628 69.1177 48.7676C69.2977 48.6509 69.4826 48.607 69.6725 48.6358C69.8818 48.6424 70.0551 48.735 70.1926 48.9135C70.3551 49.153 70.3825 49.4017 70.2749 49.6597C69.6013 51.4179 69.5794 52.474 70.2091 52.8277C70.8596 53.1801 71.7451 53.151 72.8656 52.7404C74.0069 52.3285 74.9769 51.8551 75.7757 51.3203ZM80.8717 40.824C81.4357 40.8273 81.7076 40.9862 81.6873 41.3009C81.6656 41.5947 81.4783 41.9102 81.1254 42.2475C80.7919 42.5626 80.4209 42.7863 80.0123 42.9186C79.623 43.0287 79.3228 42.9135 79.1117 42.5729C79.063 42.4718 79.067 42.3776 79.1237 42.2902C79.1997 42.1806 79.298 42.0903 79.4184 42.0195C79.5583 41.9264 79.678 41.8452 79.7777 41.7757C79.8594 41.7492 79.9203 41.7242 79.9605 41.7006C80.0006 41.677 80.02 41.6548 80.0186 41.634C80.0238 41.4039 80.1045 41.2105 80.2609 41.0536C80.4173 40.8968 80.6208 40.8203 80.8717 40.824ZM74.9296 56.1077C74.119 56.1631 73.6232 55.9359 73.4423 55.4262C73.2613 54.9165 73.2894 54.2568 73.5265 53.4471C73.7414 52.618 74.0685 51.75 74.5077 50.843C74.9456 49.9152 75.3891 49.0706 75.8383 48.309C76.2861 47.5267 76.642 46.9282 76.9061 46.5134C76.9793 46.3623 77.0449 46.2534 77.103 46.1868C76.9556 45.8627 77.0451 45.4912 77.3715 45.0722C77.6965 44.6323 78.0916 44.3026 78.5569 44.0829C79.0208 43.8424 79.3659 43.8502 79.5922 44.1062C79.7533 44.3249 79.7993 44.5411 79.7304 44.7546C79.6614 44.9681 79.5606 45.1734 79.4278 45.3704C79.3891 45.4148 79.3511 45.4696 79.3138 45.5348C78.6005 46.711 77.8237 48.0274 76.9834 49.4838C76.1625 50.918 75.5553 52.1184 75.1619 53.0849C74.8638 53.9196 75.1126 54.3516 75.9081 54.3809C76.7244 54.4087 77.7551 54.2131 79.0003 53.794C80.2663 53.3735 81.4165 52.94 82.451 52.4936C83.5049 52.0249 84.1315 51.7211 84.3308 51.5822C84.551 51.4419 84.7262 51.4091 84.8566 51.4837C85.0078 51.5569 85.0794 51.6878 85.0713 51.8763C85.0619 52.044 84.9285 52.2306 84.671 52.4361C83.371 53.2765 81.6511 54.083 79.5112 54.8554C77.3922 55.6265 75.8649 56.0439 74.9296 56.1077ZM93.7646 41.5104C90.0827 40.8011 88.0186 39.4698 87.5721 37.5165C87.1256 35.5632 88.1819 33.1419 90.7412 30.2526C92.0222 28.8288 93.9908 27.0761 96.6469 24.9946C99.3016 22.8924 102.214 20.8978 105.385 19.0109C108.576 17.1226 111.576 15.8007 114.386 15.0452C117.194 14.2689 119.371 14.5066 120.918 15.7584C122.018 16.8736 122.376 18.4571 121.994 20.5087C121.631 22.5381 120.93 24.6532 119.89 26.8541C118.869 29.0328 117.921 30.9038 117.047 32.467C116.842 32.8359 116.656 33.1723 116.489 33.476C116.416 33.6272 116.401 33.7221 116.446 33.7609C116.489 33.7788 116.562 33.7738 116.664 33.746C116.786 33.6959 116.907 33.6354 117.028 33.5646C117.129 33.5159 117.22 33.4783 117.302 33.4519C119.437 32.617 121.598 31.8432 123.784 31.1302C123.989 31.0745 124.178 31.0929 124.351 31.1855C124.546 31.2766 124.682 31.4344 124.76 31.6588C124.815 31.8638 124.764 32.0343 124.607 32.1704C124.468 32.2842 124.296 32.369 124.091 32.4248C122.029 33.1084 120.003 33.8627 118.013 34.6876C117.464 34.913 116.905 35.139 116.336 35.3658C115.644 35.6219 115.101 36.087 114.709 36.7611C113.541 38.9289 112.373 41.0968 111.206 43.2646C106.355 52.0527 101.699 60.932 97.2367 69.9024C97.0917 70.2255 96.9772 70.5361 96.8931 70.8342C96.7774 71.2806 96.6116 71.6052 96.3957 71.8078C96.1799 72.0105 95.7911 71.9744 95.2294 71.6995C95.1061 70.81 96.1178 68.1934 98.2645 63.8496C100.434 59.5253 102.863 54.8908 105.554 49.9462C108.265 45.0001 110.375 41.1914 111.884 38.5199C112.128 38.1066 112.333 37.748 112.5 37.4443C112.663 37.0782 112.214 37.0775 111.153 37.4422C110.091 37.7862 108.749 38.3267 107.129 39.0637C105.507 39.7799 103.958 40.4912 102.482 41.1975C101.006 41.9038 99.9342 42.4154 99.2668 42.7324C99.1255 42.8047 99.0141 42.8541 98.9323 42.8805C98.852 42.9278 98.7918 42.9632 98.7517 42.9868C98.7323 43.009 98.7129 43.0312 98.6936 43.0534C98.6936 43.0534 98.6839 43.0645 98.6645 43.0867C98.6659 43.1075 98.6577 43.1394 98.6397 43.1824C98.6203 43.2046 98.5913 43.2379 98.5526 43.2823C98.3395 43.5266 97.9935 43.8112 97.5145 44.1362C97.0549 44.439 96.571 44.6913 96.0627 44.8931C95.5544 45.0948 95.1616 45.1529 94.8843 45.0674C94.5607 44.6092 94.6223 44.1352 95.0692 43.6453C95.5368 43.154 96.1015 42.7083 96.7633 42.3081C97.4251 41.908 97.9181 41.6342 98.2421 41.4868C103.036 39.2177 107.893 37.1009 112.812 35.1364C113.24 34.9819 113.573 34.8026 113.809 34.5985C114.067 34.393 114.317 34.0836 114.56 33.6703C115.105 32.7769 115.795 31.5605 116.629 30.021C117.483 28.4592 118.258 26.8089 118.954 25.07C119.669 23.3089 120.122 21.6909 120.314 20.2161C120.504 18.7205 120.22 17.6123 119.461 16.8915C118.116 15.8556 116.148 15.7707 113.555 16.6367C110.962 17.5027 108.185 18.8825 105.223 20.776C102.262 22.6695 99.5462 24.6402 97.0757 26.6881C94.6038 28.7153 92.8263 30.3609 91.7432 31.6251C90.0942 33.4708 89.2208 35.0548 89.1231 36.377C89.0254 37.6992 90.0781 38.7445 92.2814 39.513C92.5587 39.5985 92.7708 39.6467 92.9177 39.6575C93.084 39.6462 93.2073 39.6169 93.2876 39.5696C93.3679 39.5224 93.4378 39.4758 93.4973 39.43C93.5346 39.3648 93.5734 39.3204 93.6135 39.2968C93.6745 39.2718 93.7472 39.2668 93.8318 39.2819C93.9163 39.297 94.0342 39.3412 94.1854 39.4144C94.868 39.9316 95.1321 40.4357 94.9776 40.9265C94.8426 41.3951 94.4382 41.5897 93.7646 41.5104ZM118.762 53.2108C117.403 54.7235 116.067 55.3367 114.753 55.0505C113.459 54.7629 112.771 53.7031 112.688 51.8712C112.603 50.0185 113.737 47.5188 116.091 44.3721C116.996 43.2454 117.733 42.5791 118.304 42.3731C118.771 42.1742 119.136 42.1702 119.399 42.361C119.662 42.531 119.698 42.9149 119.509 43.5124C119.104 43.9995 118.77 44.3042 118.507 44.4266C118.244 44.5489 118.028 44.6054 117.861 44.5959C117.777 44.6016 117.695 44.6177 117.613 44.6441C117.551 44.6484 117.491 44.6942 117.435 44.7816C115.62 47.2651 114.544 49.2387 114.205 50.7027C113.887 52.1652 114.016 53.1275 114.59 53.5894C115.166 54.0722 115.895 54.0433 116.777 53.5029C117.176 53.2251 117.611 52.7255 118.084 52.0042C118.557 51.2828 118.937 50.5782 119.224 49.8904C119.279 49.7822 119.326 49.6955 119.363 49.6303C119.42 49.5429 119.446 49.4681 119.442 49.4057C119.437 49.3434 119.38 49.2742 119.271 49.1981C118.871 48.8495 118.516 48.383 118.204 47.7987C117.892 47.1936 117.801 46.636 117.934 46.1258C118.077 45.7819 118.379 45.6151 118.839 45.6255C119.299 45.6358 119.752 45.8451 120.198 46.2532C120.643 46.6613 120.906 47.3011 120.986 48.1727C121.07 48.7934 121.318 49.215 121.73 49.4375C122.141 49.6392 122.583 49.6925 123.057 49.5975C123.529 49.4818 123.911 49.2678 124.203 48.9555C124.456 48.6877 124.639 48.6125 124.752 48.7302C124.884 48.8256 124.886 49.0133 124.759 49.2935C124.632 49.5736 124.327 49.845 123.843 50.1077C123.075 50.4734 122.469 50.6295 122.027 50.5762C121.606 50.5214 121.286 50.4283 121.069 50.297C120.915 50.1822 120.776 50.1395 120.653 50.1688C120.528 50.1773 120.412 50.3105 120.304 50.5685C120.122 50.9568 119.881 51.4117 119.583 51.9332C119.305 52.4533 119.031 52.8792 118.762 53.2108ZM120.024 31.5121C119.995 31.702 119.846 31.8165 119.577 31.8558C119.307 31.8742 119.012 31.8317 118.691 31.7283C118.371 31.6248 118.132 31.4845 117.974 31.3074C117.814 31.1095 117.841 30.8884 118.054 30.6442C118.267 30.3999 118.761 30.1469 119.537 29.8852C123.42 28.952 127.236 28.1174 130.987 27.3812C131.708 27.2484 132.253 27.1277 132.622 27.019C133.011 26.9089 133.303 26.7533 133.498 26.552C133.713 26.3286 133.92 25.9908 134.118 25.5387C134.449 24.8688 134.789 24.1983 135.14 23.527C135.213 23.3758 135.286 23.2246 135.36 23.0735C138.214 17.4703 140.177 14.1101 141.25 12.9929C142.925 11.2289 143.713 11.4466 143.612 13.6461C143.391 16.522 142.177 20.1547 139.971 24.5442C139.972 24.565 139.964 24.5969 139.946 24.6399C139.611 25.2474 139.459 25.6128 139.488 25.7361C139.517 25.8594 139.758 25.8743 140.212 25.7807C140.295 25.775 140.367 25.7701 140.43 25.7658C140.657 25.7294 140.885 25.7034 141.114 25.6878C146.266 25.0021 151.577 24.4936 157.047 24.1621C157.4 24.138 157.634 24.2056 157.75 24.3647C157.863 24.5031 157.863 24.6494 157.748 24.8034C157.632 24.9366 157.386 25.0056 157.011 25.0103C151.142 25.3063 145.476 25.9644 140.012 26.9846C139.826 27.0182 139.661 27.0503 139.517 27.081C139.205 27.1023 138.959 27.1609 138.777 27.2568C138.596 27.3527 138.413 27.574 138.228 27.9207C135.902 32.0887 133.435 36.0262 130.827 39.7332C128.24 43.4387 126.06 46.2186 124.286 48.0728C124.189 48.1839 124.111 48.2623 124.051 48.3081C123.992 48.3539 123.942 48.3886 123.902 48.4123C123.862 48.4359 123.822 48.4699 123.784 48.5143C123.745 48.5587 123.697 48.6246 123.64 48.712C123.584 48.7994 123.51 48.9402 123.419 49.1343C119.306 56.8071 115.162 64.4612 110.984 72.0966C111.358 72.0711 111.544 72.1941 111.542 72.4657C111.52 72.7596 111.372 73.0307 111.096 73.2792C110.229 74.0275 109.609 74.2786 109.237 74.0325C108.865 73.7864 108.846 73.1927 109.178 72.2512C110.143 70.4731 111.108 68.7053 112.074 66.948C118.819 54.7104 125.431 42.3566 131.909 29.8867C131.981 29.7147 132.054 29.5636 132.129 29.4332C132.354 29.0628 132.452 28.816 132.423 28.6927C132.413 28.5472 132.161 28.533 131.668 28.6502C127.841 29.4752 123.955 30.3668 120.011 31.325C120.015 31.3874 120.019 31.4497 120.024 31.5121ZM135.949 25.2885C135.766 25.656 135.64 25.9569 135.572 26.1912C135.505 26.4255 135.564 26.5259 135.75 26.4924C136.059 26.4295 136.368 26.3771 136.679 26.335C136.886 26.3208 137.051 26.2887 137.173 26.2386C137.295 26.1885 137.404 26.0976 137.499 25.9658C137.593 25.8132 137.714 25.5961 137.862 25.3146C139.899 21.208 141.262 17.6069 141.948 14.5113C140.911 15.835 139.169 18.9191 136.722 23.7636C136.612 23.9799 136.501 24.1963 136.391 24.4126C136.243 24.6942 136.096 24.9861 135.949 25.2885ZM134.209 28.6961C133.581 29.9083 132.927 31.185 132.246 32.5261C130.615 35.8532 128.858 39.1889 126.977 42.533C126.007 44.228 126.089 44.3581 127.223 42.9234C130.112 39.0511 133.06 34.35 136.065 28.82C136.267 28.4095 136.404 28.1287 136.477 27.9775C136.549 27.8056 136.543 27.712 136.458 27.6969C136.393 27.6596 136.257 27.6584 136.051 27.6934C136.03 27.6948 135.999 27.6969 135.957 27.6998C135.917 27.7234 135.866 27.7373 135.804 27.7416C135.452 27.7865 135.144 27.8701 134.881 27.9925C134.616 28.0941 134.392 28.3286 134.209 28.6961ZM135.445 52.0724C134.087 53.5851 132.75 54.1983 131.436 53.9121C130.143 53.6245 129.454 52.5647 129.371 50.7328C129.287 48.8801 130.421 46.3804 132.775 43.2337C133.679 42.107 134.417 41.4407 134.988 41.2347C135.454 41.0358 135.82 41.0317 136.083 41.2226C136.345 41.3926 136.382 41.7764 136.193 42.374C135.788 42.8611 135.454 43.1658 135.19 43.2881C134.927 43.4105 134.712 43.467 134.544 43.4575C134.461 43.4632 134.379 43.4793 134.297 43.5057C134.235 43.51 134.175 43.5558 134.118 43.6432C132.304 46.1266 131.228 48.1003 130.889 49.5643C130.571 51.0268 130.699 51.9891 131.274 52.451C131.85 52.9338 132.579 52.9049 133.461 52.3645C133.859 52.0867 134.295 51.5871 134.768 50.8657C135.241 50.1444 135.621 49.4398 135.908 48.752C135.963 48.6438 136.009 48.5571 136.047 48.4919C136.103 48.4045 136.13 48.3297 136.125 48.2673C136.121 48.2049 136.064 48.1357 135.955 48.0597C135.555 47.7111 135.199 47.2446 134.888 46.6603C134.575 46.0552 134.485 45.4975 134.617 44.9874C134.761 44.6434 135.063 44.4767 135.523 44.487C135.983 44.4974 136.436 44.7067 136.881 45.1148C137.327 45.5229 137.59 46.1627 137.67 47.0343C137.754 47.655 138.002 48.0766 138.414 48.2991C138.825 48.5008 139.267 48.5541 139.741 48.4591C140.213 48.3434 140.595 48.1294 140.887 47.8171C141.14 47.5492 141.323 47.4741 141.435 47.5917C141.567 47.6872 141.57 47.8749 141.443 48.1551C141.315 48.4352 141.01 48.7066 140.527 48.9693C139.759 49.3349 139.153 49.4911 138.711 49.4377C138.29 49.383 137.97 49.2899 137.752 49.1586C137.598 49.0438 137.46 49.0011 137.336 49.0304C137.212 49.0389 137.095 49.1721 136.988 49.43C136.805 49.8184 136.565 50.2733 136.266 50.7948C135.989 51.3149 135.715 51.7408 135.445 52.0724ZM155.212 40.8257C155.415 40.7492 155.675 40.7314 155.991 40.7725C156.307 40.8136 156.565 40.9213 156.765 41.0956C156.965 41.2699 157.001 41.4971 156.874 41.7772C156.422 43.1028 155.874 44.4035 155.23 45.6795C155.155 45.8099 155.091 45.9395 155.037 46.0685C154.653 46.8673 154.279 47.6655 153.916 48.4629C153.315 49.7568 152.674 51.0639 151.991 52.3843C151.769 52.7962 151.622 53.0985 151.552 53.2913C151.483 53.5048 151.462 53.6628 151.49 53.7653C151.518 53.8678 151.588 53.9779 151.701 54.0955C151.723 54.1149 151.745 54.1342 151.767 54.1536C151.903 54.3114 151.957 54.4852 151.928 54.6751C151.92 54.8636 151.848 55.0252 151.711 55.1598C151.059 55.7054 150.501 56.2447 150.036 56.7776C149.572 57.3312 149.136 57.977 148.727 58.7149C148.285 59.5803 147.723 60.6732 147.04 61.9936C145.494 65.0434 143.79 68.2293 141.929 71.5512C140.09 74.8925 138.641 77.0691 137.582 78.081C136.828 78.6546 136.222 78.8107 135.766 78.5495C135.29 78.3105 135.104 77.7281 135.208 76.8022C135.495 75.1956 136.069 73.4964 136.928 71.7045C137.766 69.9142 138.651 68.3503 139.583 67.0129C141.48 64.2106 143.553 61.5424 145.803 59.0084C146.559 58.1633 147.205 57.3779 147.741 56.6523C148.277 55.9474 148.814 55.0964 149.352 54.0992L153.433 46.4285C153.769 45.8418 154.073 45.2468 154.345 44.6436C154.545 44.2123 154.621 43.9461 154.572 43.845C154.543 43.7217 154.438 43.7184 154.258 43.8351C154.077 43.931 153.868 44.081 153.631 44.2851C153.415 44.4877 153.21 44.6897 153.015 44.8909C152.897 45.0034 152.799 45.0936 152.72 45.1616C152.208 45.6142 151.404 46.3791 150.308 47.4562C148.958 48.7803 147.419 50.2531 145.692 51.8744C143.965 53.4957 142.337 54.8806 140.807 56.0291C139.279 57.1983 138.15 57.787 137.419 57.7951C136.546 57.8546 135.997 57.6102 135.772 57.0618C135.527 56.5355 135.453 55.9037 135.549 55.1663C135.836 52.9541 136.798 50.5288 138.435 47.8904C140.07 45.2313 142.044 42.9458 144.357 41.0339C146.67 39.122 148.995 38.1594 151.333 38.146C151.962 38.1866 152.425 38.3848 152.72 38.7405C153.016 39.0962 153.094 39.4771 152.955 39.8834C152.836 40.2882 152.448 40.5653 151.79 40.7146C151.585 40.7704 151.439 40.7699 151.351 40.7132C151.264 40.6566 151.186 40.5784 151.116 40.4787C151.067 40.3776 150.988 40.289 150.879 40.213C150.789 40.1147 150.638 40.0519 150.427 40.0245C150.237 39.9957 149.948 40.0364 149.559 40.1465C147.754 40.6246 145.938 41.7091 144.111 43.3999C142.283 45.0698 140.711 46.9729 139.395 49.1091C138.078 51.2246 137.303 53.1881 137.072 54.9997C136.997 55.7357 137.138 56.1124 137.494 56.1299C137.85 56.1473 138.297 55.9706 138.836 55.5998C139.354 55.2304 139.839 54.8423 140.291 54.4355C140.744 54.0288 141.038 53.7477 141.173 53.5923C144.598 50.2263 148.113 46.9586 151.718 43.7892C152.86 42.7716 154.024 41.7838 155.212 40.8257ZM136.873 76.8765C137.238 76.7055 137.729 76.0977 138.346 75.0532C138.966 74.0295 139.597 72.8797 140.241 71.6038C140.864 70.3292 141.385 69.2392 141.803 68.3336C142.077 67.7511 142.26 67.3732 142.352 67.1998C142.39 67.1346 142.446 67.0368 142.52 66.9064C142.67 66.6457 142.846 66.3204 143.049 65.9307C143.253 65.5617 143.407 65.2067 143.509 64.8657C143.633 64.544 143.64 64.3451 143.531 64.269C143.338 64.1987 142.946 64.5804 142.356 65.4142C141.788 66.2673 141.13 67.3458 140.384 68.6497C139.659 69.9521 138.974 71.2413 138.33 72.5172C137.688 73.814 137.217 74.8797 136.919 75.7144C136.621 76.5491 136.606 76.9365 136.873 76.8765ZM158.36 36.6643C157.729 35.9973 157.35 35.3341 157.221 34.6746C157.112 33.6798 157.365 32.9525 157.981 32.4928C158.597 32.0332 159.375 32.1158 160.316 32.7407C160.674 33.0922 160.914 33.5456 161.035 34.1012C161.177 34.6553 161.128 35.306 160.886 36.0533C160.779 36.3112 160.74 36.5123 160.771 36.6563C160.821 36.7782 160.985 36.8923 161.264 36.9985C162.956 37.614 164.146 38.3785 164.835 39.292C165.523 40.2056 165.329 41.4822 164.25 43.122C163.682 43.9751 163.158 45.0132 162.677 46.2363C162.196 47.4385 162.089 48.4794 162.358 49.359C162.647 49.924 163.311 50.0144 164.35 49.6303C165.411 49.2655 166.561 48.6755 167.8 47.8601C169.039 47.0447 170.103 46.2621 170.991 45.5124C171.265 45.2431 171.486 45.1132 171.654 45.1226C171.82 45.1113 171.909 45.1887 171.92 45.355C171.952 45.5199 171.881 45.7022 171.707 45.902C169.108 48.5225 166.725 50.1573 164.555 50.8065C162.386 51.4557 161.034 51.0781 160.5 49.6737C159.966 48.2693 160.842 45.8081 163.129 42.2901C163.769 41.265 163.819 40.4681 163.279 39.8994C162.737 39.3099 161.938 38.7693 160.881 38.2776C160.838 38.2596 160.806 38.241 160.784 38.2216C160.566 38.0903 160.375 38.0511 160.212 38.104C160.068 38.1347 159.883 38.3352 159.658 38.7056C159.431 39.0552 159.26 39.307 159.145 39.461C158.841 39.8994 158.566 40.1479 158.319 40.2065C158.071 40.2443 157.879 40.1739 157.741 39.9953C157.624 39.8154 157.579 39.6096 157.605 39.3782C157.653 39.1661 157.749 39.0446 157.893 39.0139C158.037 38.9832 158.32 38.6925 158.742 38.1416C158.93 37.8365 158.964 37.5731 158.845 37.3516C158.745 37.1078 158.583 36.8787 158.36 36.6643ZM159.773 35.3462C159.821 34.8209 159.738 34.3672 159.524 33.985C159.31 33.6029 159.088 33.4196 158.86 33.4352C158.63 33.43 158.548 33.7593 158.614 34.423C158.642 34.5255 158.716 34.6979 158.837 34.9402C158.957 35.1618 159.086 35.3722 159.225 35.5716C159.384 35.7695 159.527 35.8642 159.651 35.8557C159.693 35.8529 159.712 35.8307 159.709 35.7891C159.726 35.7253 159.732 35.6622 159.728 35.5999C159.743 35.5153 159.758 35.4308 159.773 35.3462ZM185.303 43.8467C185.845 43.5174 186.176 43.4739 186.297 43.7162C186.418 43.9586 186.241 44.2734 185.766 44.6608C185.009 45.1927 184.022 45.7299 182.807 46.2723C181.61 46.7924 180.518 47.0027 179.529 46.9031C178.54 46.7827 177.977 46.0276 177.84 44.6378L177.829 44.4819C177.83 44.1895 177.8 44.0455 177.737 44.0497C177.673 44.0332 177.502 44.1284 177.224 44.3353C174.146 46.6544 171.866 48.1256 170.384 48.7487C168.923 49.3704 168.041 49.4515 167.738 48.9919C167.36 48.3495 167.706 47.2922 168.774 45.8202C169.842 44.3274 171.247 42.8847 172.99 41.492C174.753 40.0979 176.468 39.2187 178.134 38.8544C179.8 38.4693 181.03 39.0536 181.825 40.6072C181.901 40.8108 181.883 41 181.77 41.1748C181.656 41.3496 181.498 41.4752 181.294 41.5518C181.091 41.6283 180.849 41.603 180.569 41.476C180.309 41.3475 180.121 41.1829 180.002 40.9821C180 40.9406 180.007 40.8983 180.025 40.8553C180.043 40.8123 180.061 40.7693 180.079 40.7263C180.097 40.6833 180.115 40.6404 180.133 40.5974C180.151 40.5544 180.148 40.5128 180.124 40.4727C179.556 39.8014 178.656 39.7585 177.422 40.3438C176.188 40.9292 174.9 41.8001 173.559 42.9566C172.218 44.1131 171.092 45.2027 170.18 46.2255C169.267 47.2274 168.849 47.8302 168.926 48.0338C169.023 48.236 169.82 47.837 171.318 46.8369C172.816 45.8368 175.259 43.9891 178.646 41.294C178.825 41.1773 179.01 41.1334 179.2 41.1622C179.41 41.1688 179.583 41.2613 179.72 41.4399C179.883 41.6794 179.91 41.9281 179.803 42.186C179.129 43.9443 179.107 45.0003 179.737 45.3541C180.387 45.7065 181.273 45.6774 182.393 45.2668C183.535 44.8548 184.505 44.3814 185.303 43.8467ZM184.254 48.8672C184.172 48.8937 184.09 48.9098 184.007 48.9154C183.493 49.034 183.125 49.1531 182.904 49.2726C182.683 49.4129 182.472 49.678 182.269 50.0677C181.029 52.4075 179.893 54.5732 178.859 56.5649C177.511 59.1418 176.032 61.9469 174.422 64.9802C174.136 65.6888 173.742 66.1855 173.239 66.4704C172.738 66.7761 172.334 66.8141 172.026 66.5846C171.698 66.3772 171.652 65.8479 171.886 64.9966C171.933 64.7638 171.994 64.5925 172.07 64.4829C172.148 64.3941 172.227 64.3365 172.309 64.31C172.392 64.3043 172.486 64.3083 172.592 64.322C172.675 64.3164 172.757 64.3003 172.839 64.2738C172.922 64.2682 173.002 64.2209 173.08 64.1321C174.395 61.6827 175.6 59.4393 176.693 57.4018C177.766 55.3865 178.971 53.1535 180.307 50.7027C180.363 50.5945 180.419 50.4967 180.475 50.4093C180.644 50.1263 180.695 49.9558 180.628 49.8977C180.563 49.8604 180.275 49.9218 179.764 50.082C175.031 51.4073 171.837 52.5022 170.184 53.3668C168.531 54.2313 167.817 54.9482 168.044 55.5174C168.15 55.8443 168.392 56.1724 168.769 56.5016C169.147 56.8309 169.576 57.1565 170.057 57.4787C170.733 57.892 171.317 58.3429 171.81 58.8313C172.303 59.3197 172.496 59.8599 172.39 60.4518C172.345 60.7054 172.235 60.9322 172.061 61.132C171.867 61.3541 171.622 61.4334 171.325 61.3702C171.196 61.3163 171.15 61.2568 171.188 61.1916C171.204 61.1278 171.252 61.0619 171.331 60.9939C171.371 60.9703 171.42 60.9252 171.478 60.8585C171.517 60.8141 171.545 60.7704 171.563 60.7275C171.568 60.1842 171.325 59.6788 170.833 59.2111C170.342 58.7435 169.768 58.2815 169.11 57.8252C168.541 57.4464 168.034 57.0529 167.589 56.6448C167.145 56.2575 166.865 55.838 166.751 55.3864C166.537 54.6911 166.772 54.0172 167.459 53.3648C168.147 52.7332 169.499 52.0458 171.515 51.3026C173.513 50.5816 176.39 49.7484 180.146 48.803C180.577 48.6901 180.905 48.5946 181.129 48.5167C181.333 48.4401 181.502 48.3241 181.638 48.1687C181.751 47.9939 181.881 47.745 182.026 47.4219C182.429 46.6008 182.863 45.7673 183.327 44.9212C183.475 44.6396 183.623 44.3685 183.773 44.1077C183.756 43.8583 183.803 43.6358 183.915 43.4402C184.048 43.2432 184.192 43.0663 184.349 42.9095C190.252 32.1075 194.384 24.872 196.744 21.2028C196.969 20.8325 197.251 20.5313 197.59 20.2993C197.949 20.0452 198.297 19.9483 198.635 20.0088C198.974 20.0692 199.246 20.3848 199.452 20.9554C199.277 23.2852 198.32 25.9502 196.583 28.9505C194.846 31.9507 192.941 34.7953 190.87 37.4842C188.817 40.151 187.21 42.1504 186.048 43.4826C185.951 43.5936 185.865 43.704 185.789 43.8136C185.495 44.105 185.227 44.4574 184.984 44.8708C184.746 45.3673 184.535 45.7993 184.352 46.1668C184.059 46.7715 183.859 47.2028 183.751 47.4607C183.642 47.6979 183.641 47.8337 183.747 47.8682C183.853 47.8819 184.059 47.8469 184.367 47.7633C184.45 47.7576 184.532 47.7415 184.614 47.7151C185.991 47.3914 187.462 47.0718 189.028 46.7561C190.798 46.3847 192.732 45.9604 194.829 45.4832C195.097 45.4232 195.296 45.4409 195.428 45.5363C195.56 45.6317 195.61 45.7536 195.578 45.9019C195.547 46.0503 195.398 46.1648 195.132 46.2456C190.917 47.2015 187.291 48.0754 184.254 48.8672ZM191.834 32.3441C189.405 36.5192 189.453 36.7665 191.979 33.086C194.278 29.7551 195.85 27.236 196.694 25.5287C197.558 23.7993 197.603 23.389 196.829 24.2979C196.076 25.1846 194.41 27.8667 191.834 32.3441ZM199.708 32.7152C200.272 32.7185 200.544 32.8775 200.523 33.1921C200.502 33.4859 200.314 33.8015 199.962 34.1388C199.628 34.4539 199.257 34.6776 198.848 34.8098C198.459 34.9199 198.159 34.8047 197.948 34.4641C197.899 34.363 197.903 34.2688 197.96 34.1814C198.036 34.0718 198.134 33.9815 198.255 33.9107C198.394 33.8176 198.514 33.7364 198.614 33.6669C198.696 33.6405 198.757 33.6154 198.797 33.5918C198.837 33.5682 198.856 33.546 198.855 33.5252C198.86 33.2951 198.941 33.1017 199.097 32.9448C199.253 32.788 199.457 32.7115 199.708 32.7152ZM193.766 47.999C192.955 48.0543 192.459 47.8271 192.278 47.3174C192.097 46.8077 192.126 46.148 192.363 45.3383C192.578 44.5092 192.905 43.6412 193.344 42.7342C193.782 41.8064 194.225 40.9618 194.674 40.2002C195.122 39.418 195.478 38.8194 195.742 38.4046C195.815 38.2535 195.881 38.1446 195.939 38.078C195.792 37.7539 195.881 37.3824 196.208 36.9634C196.533 36.5236 196.928 36.1938 197.393 35.9741C197.857 35.7337 198.202 35.7414 198.428 35.9974C198.589 36.2162 198.636 36.4323 198.567 36.6458C198.498 36.8593 198.397 37.0646 198.264 37.2616C198.225 37.306 198.187 37.3608 198.15 37.426C197.437 38.6023 196.66 39.9186 195.82 41.375C194.999 42.8092 194.391 44.0096 193.998 44.9761C193.7 45.8109 193.949 46.2428 194.744 46.2721C195.561 46.2999 196.591 46.1043 197.836 45.6852C199.102 45.2647 200.253 44.8312 201.287 44.3848C202.341 43.9161 202.968 43.6123 203.167 43.4734C203.387 43.3331 203.562 43.3003 203.693 43.3749C203.844 43.4481 203.916 43.579 203.908 43.7675C203.898 43.9352 203.765 44.1218 203.507 44.3273C202.207 45.1677 200.487 45.9742 198.347 46.7466C196.228 47.5177 194.701 47.9351 193.766 47.999ZM217.157 41.6731C217.698 41.3439 218.029 41.3004 218.15 41.5427C218.271 41.785 218.094 42.0999 217.62 42.4873C216.862 43.0192 215.876 43.5564 214.66 44.0987C213.463 44.6189 212.371 44.8292 211.383 44.7296C210.393 44.6092 209.83 43.8541 209.693 42.4643L209.683 42.3084C209.684 42.016 209.653 41.8719 209.591 41.8762C209.527 41.8597 209.356 41.9549 209.078 42.1618C205.999 44.4809 203.719 45.952 202.237 46.5752C200.776 47.1969 199.894 47.278 199.591 46.8184C199.213 46.1759 199.559 45.1187 200.628 43.6467C201.695 42.1539 203.1 40.7112 204.843 39.3185C206.606 37.9244 208.321 37.0451 209.988 36.6808C211.653 36.2958 212.883 36.88 213.678 38.4337C213.755 38.6373 213.736 38.8265 213.623 39.0013C213.51 39.1761 213.351 39.3017 213.148 39.3783C212.944 39.4548 212.702 39.4295 212.422 39.3025C212.163 39.174 211.974 39.0094 211.856 38.8086C211.853 38.7671 211.861 38.7248 211.879 38.6818C211.896 38.6388 211.914 38.5958 211.932 38.5528C211.95 38.5098 211.968 38.4668 211.986 38.4239C212.004 38.3809 212.001 38.3393 211.978 38.2991C211.41 37.6279 210.509 37.585 209.275 38.1703C208.041 38.7557 206.754 39.6266 205.413 40.7831C204.072 41.9395 202.945 43.0292 202.034 44.0519C201.121 45.0539 200.702 45.6567 200.779 45.8603C200.876 46.0625 201.674 45.6635 203.172 44.6634C204.67 43.6633 207.112 41.8156 210.499 39.1205C210.679 39.0038 210.864 38.9598 211.054 38.9886C211.263 38.9952 211.436 39.0878 211.574 39.2664C211.736 39.5059 211.764 39.7546 211.656 40.0125C210.983 41.7708 210.961 42.8268 211.59 43.1806C212.241 43.533 213.126 43.5039 214.247 43.0933C215.388 42.6813 216.358 42.2079 217.157 41.6731Z" fill="white"/>
<path d="M43.9728 86.9121C43.9728 87.7402 43.7638 88.4043 43.3459 88.9043C42.9279 89.4004 42.3361 89.7285 41.5705 89.8887C41.4025 89.9238 41.2033 89.9512 40.9728 89.9707C40.7462 89.9902 40.5041 90 40.2462 90H38.7287V83.877H40.3048C40.7658 83.877 41.1642 83.9082 41.5002 83.9707C41.84 84.0293 42.1427 84.1211 42.4084 84.2461C42.9201 84.4805 43.3087 84.8223 43.5744 85.2715C43.84 85.7168 43.9728 86.2637 43.9728 86.9121ZM43.0177 86.9121C43.0177 86.4824 42.9572 86.125 42.8361 85.8398C42.715 85.5508 42.5353 85.3223 42.297 85.1543C42.0587 84.9824 41.7697 84.8613 41.4298 84.791C41.0939 84.7207 40.7052 84.6855 40.2638 84.6855H39.6486V89.1914H40.2521C40.5021 89.1914 40.7423 89.1816 40.9728 89.1621C41.2072 89.1387 41.4259 89.0977 41.6291 89.0391C41.8361 88.9766 42.0236 88.8926 42.1916 88.7871C42.3634 88.6816 42.5099 88.5449 42.631 88.377C42.7521 88.209 42.8459 88.0059 42.9123 87.7676C42.9826 87.5254 43.0177 87.2402 43.0177 86.9121ZM49.662 89.1914H52.9433V90H48.7421V83.877H52.7734V84.6855H49.662V86.4551H52.4452V87.2637H49.662V89.1914ZM58.4977 85.5293C58.4977 85.7051 58.5348 85.8496 58.6091 85.9629C58.6833 86.0723 58.7829 86.1621 58.9079 86.2324C59.0329 86.3027 59.1735 86.3594 59.3298 86.4023C59.4899 86.4453 59.6637 86.4863 59.8512 86.5254C60.0817 86.5723 60.3141 86.627 60.5485 86.6895C60.7829 86.752 60.9938 86.8438 61.1813 86.9648C61.3727 87.0859 61.527 87.25 61.6442 87.457C61.7653 87.6641 61.8259 87.9375 61.8259 88.2773C61.8259 88.6055 61.7634 88.8887 61.6384 89.127C61.5173 89.3613 61.3454 89.5547 61.1227 89.707C60.9001 89.8594 60.6344 89.9707 60.3259 90.041C60.0212 90.1113 59.6852 90.1465 59.318 90.1465C59.154 90.1465 58.986 90.1367 58.8141 90.1172C58.6462 90.0977 58.4841 90.0703 58.3278 90.0352C58.1716 90.0039 58.029 89.9668 57.9001 89.9238C57.7712 89.877 57.6716 89.832 57.6012 89.7891V88.957C57.7145 89.0156 57.8395 89.0684 57.9762 89.1152C58.113 89.1621 58.2536 89.2031 58.3981 89.2383C58.5466 89.2695 58.695 89.2949 58.8434 89.3145C58.9919 89.3301 59.1325 89.3379 59.2653 89.3379C59.4528 89.3379 59.6423 89.3281 59.8337 89.3086C60.0251 89.2852 60.2009 89.2402 60.361 89.1738C60.5251 89.1035 60.6579 89 60.7594 88.8633C60.861 88.7227 60.9118 88.543 60.9118 88.3242C60.9118 88.1367 60.8708 87.9844 60.7887 87.8672C60.7106 87.7461 60.6052 87.6504 60.4723 87.5801C60.3395 87.5059 60.1852 87.4473 60.0094 87.4043C59.8337 87.3613 59.652 87.3203 59.4645 87.2812C59.2302 87.2344 59.0036 87.1816 58.7848 87.123C58.5661 87.0605 58.3669 86.9707 58.1872 86.8535C58.0114 86.7324 57.8669 86.5723 57.7536 86.373C57.6442 86.1699 57.5895 85.9043 57.5895 85.5762C57.5895 85.2559 57.6462 84.9805 57.7594 84.75C57.8766 84.5156 58.0348 84.3242 58.2341 84.1758C58.4333 84.0234 58.6637 83.9121 58.9255 83.8418C59.1911 83.7676 59.4723 83.7305 59.7692 83.7305C60.1169 83.7305 60.443 83.7617 60.7477 83.8242C61.0563 83.8867 61.3278 83.9707 61.5622 84.0762V84.9141C61.3122 84.8086 61.0407 84.7207 60.7477 84.6504C60.4548 84.5762 60.1442 84.5391 59.8161 84.5391C59.3903 84.5391 59.0641 84.6211 58.8376 84.7852C58.611 84.9453 58.4977 85.1934 58.4977 85.5293ZM66.7651 90V83.877H67.685V90H66.7651ZM75.8059 89.3379C75.8723 89.3379 75.9445 89.3359 76.0227 89.332C76.1008 89.3281 76.1789 89.3223 76.257 89.3145C76.3391 89.3066 76.4172 89.2969 76.4914 89.2852C76.5656 89.2734 76.6301 89.2617 76.6848 89.25V87.6621H75.2902V86.8535H77.6047V89.8418C77.5227 89.877 77.4133 89.9141 77.2766 89.9531C77.1437 89.9883 76.9953 90.0195 76.8312 90.0469C76.6711 90.0781 76.5012 90.1016 76.3215 90.1172C76.1457 90.1367 75.9738 90.1465 75.8059 90.1465C75.2941 90.1465 74.8312 90.0762 74.4172 89.9355C74.007 89.791 73.6555 89.5859 73.3625 89.3203C73.0734 89.0508 72.8488 88.7227 72.6887 88.3359C72.5324 87.9492 72.4543 87.5098 72.4543 87.0176C72.4543 86.5215 72.5441 86.0723 72.7238 85.6699C72.9035 85.2637 73.1477 84.918 73.4562 84.6328C73.7687 84.3438 74.134 84.1211 74.5519 83.9648C74.9738 83.8086 75.425 83.7305 75.9055 83.7305C76.0461 83.7305 76.1887 83.7363 76.3332 83.748C76.4777 83.7598 76.6125 83.7754 76.7375 83.7949C76.8664 83.8145 76.9855 83.8379 77.0949 83.8652C77.2043 83.8926 77.2961 83.9219 77.3703 83.9531V84.7617C77.2766 84.7305 77.173 84.7012 77.0598 84.6738C76.9465 84.6465 76.8293 84.623 76.7082 84.6035C76.591 84.584 76.4719 84.5684 76.3508 84.5566C76.2297 84.5449 76.1125 84.5391 75.9992 84.5391C75.6594 84.5391 75.3332 84.5879 75.0207 84.6855C74.7121 84.7793 74.4367 84.9277 74.1945 85.1309C73.9562 85.3301 73.7648 85.584 73.6203 85.8926C73.4797 86.2012 73.4094 86.5684 73.4094 86.9941C73.4094 87.4121 73.468 87.7695 73.5852 88.0664C73.7062 88.3633 73.8723 88.6055 74.0832 88.793C74.298 88.9805 74.5519 89.1191 74.8449 89.209C75.1379 89.2949 75.4582 89.3379 75.8059 89.3379ZM85.9541 87.1465C86.3994 87.7793 86.7587 88.332 87.0322 88.8047H87.0615C87.0146 88.1016 86.9912 87.3242 86.9912 86.4727V83.877H87.9111V90H86.9443L84.5712 86.6543C84.1533 86.0527 83.7919 85.498 83.4873 84.9902H83.4638C83.5068 85.7441 83.5283 86.5332 83.5283 87.3574V90H82.6084V83.877H83.6396L85.9541 87.1465ZM99.5942 89.1914H102.875V90H98.6743V83.877H102.706V84.6855H99.5942V86.4551H102.377V87.2637H99.5942V89.1914ZM113.311 90V83.877H117.283V84.6855H114.23V86.4551H116.955V87.2637H114.23V90H113.311ZM127.59 86.9473C127.59 87.4082 127.517 87.834 127.373 88.2246C127.228 88.6152 127.025 88.9531 126.763 89.2383C126.506 89.5234 126.193 89.7461 125.826 89.9062C125.463 90.0664 125.058 90.1465 124.613 90.1465C124.156 90.1465 123.742 90.0664 123.371 89.9062C123 89.7461 122.683 89.5234 122.422 89.2383C122.164 88.9531 121.965 88.6152 121.824 88.2246C121.683 87.834 121.613 87.4082 121.613 86.9473C121.613 86.4824 121.685 86.0547 121.83 85.6641C121.974 85.2695 122.177 84.9297 122.439 84.6445C122.701 84.3555 123.015 84.1309 123.383 83.9707C123.75 83.8105 124.156 83.7305 124.601 83.7305C125.058 83.7305 125.47 83.8105 125.838 83.9707C126.209 84.1309 126.523 84.3555 126.781 84.6445C127.039 84.9297 127.238 85.2695 127.379 85.6641C127.519 86.0547 127.59 86.4824 127.59 86.9473ZM126.635 86.9473C126.635 86.5527 126.582 86.2051 126.476 85.9043C126.371 85.6035 126.224 85.3516 126.037 85.1484C125.853 84.9453 125.638 84.793 125.392 84.6914C125.146 84.5898 124.883 84.5391 124.601 84.5391C124.32 84.5391 124.056 84.5898 123.81 84.6914C123.564 84.793 123.347 84.9453 123.16 85.1484C122.976 85.3516 122.832 85.6035 122.726 85.9043C122.621 86.2051 122.568 86.5527 122.568 86.9473C122.568 87.3418 122.621 87.6895 122.726 87.9902C122.836 88.2871 122.982 88.5352 123.166 88.7344C123.349 88.9336 123.566 89.084 123.816 89.1855C124.066 89.2871 124.332 89.3379 124.613 89.3379C124.894 89.3379 125.156 89.2871 125.398 89.1855C125.644 89.084 125.859 88.9336 126.043 88.7344C126.226 88.5352 126.371 88.2871 126.476 87.9902C126.582 87.6895 126.635 87.3418 126.635 86.9473ZM133.742 84.6855H131.533V83.877H136.871V84.6855H134.662V90H133.742V84.6855ZM146.796 86.9473C146.796 87.4082 146.724 87.834 146.579 88.2246C146.435 88.6152 146.232 88.9531 145.97 89.2383C145.712 89.5234 145.4 89.7461 145.033 89.9062C144.669 90.0664 144.265 90.1465 143.82 90.1465C143.363 90.1465 142.949 90.0664 142.577 89.9062C142.206 89.7461 141.89 89.5234 141.628 89.2383C141.37 88.9531 141.171 88.6152 141.031 88.2246C140.89 87.834 140.82 87.4082 140.82 86.9473C140.82 86.4824 140.892 86.0547 141.036 85.6641C141.181 85.2695 141.384 84.9297 141.646 84.6445C141.908 84.3555 142.222 84.1309 142.589 83.9707C142.956 83.8105 143.363 83.7305 143.808 83.7305C144.265 83.7305 144.677 83.8105 145.044 83.9707C145.415 84.1309 145.73 84.3555 145.988 84.6445C146.245 84.9297 146.445 85.2695 146.585 85.6641C146.726 86.0547 146.796 86.4824 146.796 86.9473ZM145.841 86.9473C145.841 86.5527 145.788 86.2051 145.683 85.9043C145.577 85.6035 145.431 85.3516 145.243 85.1484C145.06 84.9453 144.845 84.793 144.599 84.6914C144.353 84.5898 144.089 84.5391 143.808 84.5391C143.527 84.5391 143.263 84.5898 143.017 84.6914C142.771 84.793 142.554 84.9453 142.366 85.1484C142.183 85.3516 142.038 85.6035 141.933 85.9043C141.827 86.2051 141.775 86.5527 141.775 86.9473C141.775 87.3418 141.827 87.6895 141.933 87.9902C142.042 88.2871 142.189 88.5352 142.372 88.7344C142.556 88.9336 142.773 89.084 143.023 89.1855C143.273 89.2871 143.538 89.3379 143.82 89.3379C144.101 89.3379 144.363 89.2871 144.605 89.1855C144.851 89.084 145.066 88.9336 145.249 88.7344C145.433 88.5352 145.577 88.2871 145.683 87.9902C145.788 87.6895 145.841 87.3418 145.841 86.9473ZM154.56 89.3379C154.626 89.3379 154.698 89.3359 154.776 89.332C154.855 89.3281 154.933 89.3223 155.011 89.3145C155.093 89.3066 155.171 89.2969 155.245 89.2852C155.319 89.2734 155.384 89.2617 155.439 89.25V87.6621H154.044V86.8535H156.358V89.8418C156.276 89.877 156.167 89.9141 156.03 89.9531C155.897 89.9883 155.749 90.0195 155.585 90.0469C155.425 90.0781 155.255 90.1016 155.075 90.1172C154.899 90.1367 154.728 90.1465 154.56 90.1465C154.048 90.1465 153.585 90.0762 153.171 89.9355C152.761 89.791 152.409 89.5859 152.116 89.3203C151.827 89.0508 151.603 88.7227 151.442 88.3359C151.286 87.9492 151.208 87.5098 151.208 87.0176C151.208 86.5215 151.298 86.0723 151.478 85.6699C151.657 85.2637 151.901 84.918 152.21 84.6328C152.522 84.3438 152.888 84.1211 153.306 83.9648C153.728 83.8086 154.179 83.7305 154.659 83.7305C154.8 83.7305 154.942 83.7363 155.087 83.748C155.231 83.7598 155.366 83.7754 155.491 83.7949C155.62 83.8145 155.739 83.8379 155.849 83.8652C155.958 83.8926 156.05 83.9219 156.124 83.9531V84.7617C156.03 84.7305 155.927 84.7012 155.814 84.6738C155.7 84.6465 155.583 84.623 155.462 84.6035C155.345 84.584 155.226 84.5684 155.105 84.5566C154.983 84.5449 154.866 84.5391 154.753 84.5391C154.413 84.5391 154.087 84.5879 153.774 84.6855C153.466 84.7793 153.19 84.9277 152.948 85.1309C152.71 85.3301 152.519 85.584 152.374 85.8926C152.233 86.2012 152.163 86.5684 152.163 86.9941C152.163 87.4121 152.222 87.7695 152.339 88.0664C152.46 88.3633 152.626 88.6055 152.837 88.793C153.052 88.9805 153.306 89.1191 153.599 89.209C153.892 89.2949 154.212 89.3379 154.56 89.3379ZM164.21 87.4277L166.137 90H165.042L163.249 87.5332H162.282V90H161.362V83.877H163.29C163.579 83.877 163.833 83.8926 164.052 83.9238C164.274 83.9551 164.473 84.002 164.649 84.0645C165.036 84.2012 165.325 84.4062 165.516 84.6797C165.712 84.9531 165.809 85.2812 165.809 85.6641C165.809 85.9062 165.768 86.125 165.686 86.3203C165.608 86.5156 165.497 86.6855 165.352 86.8301C165.212 86.9746 165.044 87.0957 164.848 87.1934C164.653 87.291 164.44 87.3613 164.21 87.4043V87.4277ZM162.282 84.6855V86.7246H163.266C163.829 86.7246 164.233 86.6367 164.479 86.4609C164.729 86.2812 164.854 86.0137 164.854 85.6582C164.85 85.3223 164.727 85.0762 164.485 84.9199C164.247 84.7637 163.905 84.6855 163.46 84.6855H162.282ZM174.194 88.2305H171.54L170.854 90H169.911L172.354 83.877H173.368L175.829 90H174.879L174.194 88.2305ZM172.858 84.7852C172.643 85.3828 172.444 85.9141 172.26 86.3789L171.856 87.4219H173.883L173.485 86.3789C173.301 85.8945 173.104 85.3633 172.893 84.7852H172.858ZM180.182 90V83.877H184.155V84.6855H181.102V86.4551H183.826V87.2637H181.102V90H180.182ZM188.836 90V83.877H189.756V90H188.836ZM198.398 88.2305H195.744L195.058 90H194.115L196.558 83.877H197.572L200.033 90H199.084L198.398 88.2305ZM197.062 84.7852C196.848 85.3828 196.648 85.9141 196.465 86.3789L196.06 87.4219H198.088L197.689 86.3789C197.506 85.8945 197.308 85.3633 197.098 84.7852H197.062Z" fill="white"/>
</svg>
